<?xml version="1.0" encoding="UTF-8" standalone="no"?>
<svg
   xmlns:dc="http://purl.org/dc/elements/1.1/"
   xmlns:cc="http://creativecommons.org/ns#"
   xmlns:rdf="http://www.w3.org/1999/02/22-rdf-syntax-ns#"
   xmlns:svg="http://www.w3.org/2000/svg"
   xmlns="http://www.w3.org/2000/svg"
   xmlns:sodipodi="http://sodipodi.sourceforge.net/DTD/sodipodi-0.dtd"
   xmlns:inkscape="http://www.inkscape.org/namespaces/inkscape"
   width="22.809582mm"
   height="22.809582mm"
   viewBox="0 0 22.809582 22.809582"
   version="1.1"
   id="svg1225"
   sodipodi:docname="logoad112.svg"
   inkscape:version="1.0.2 (394de47547, 2021-03-26)">
  <defs
     id="defs1219" />
  <sodipodi:namedview
     id="base"
     pagecolor="#ffffff"
     bordercolor="#666666"
     borderopacity="1.0"
     inkscape:pageopacity="0.0"
     inkscape:pageshadow="2"
     inkscape:zoom="5.6"
     inkscape:cx="46.788942"
     inkscape:cy="50.061578"
     inkscape:document-units="mm"
     inkscape:current-layer="g1825"
     inkscape:document-rotation="0"
     showgrid="false"
     fit-margin-top="0"
     fit-margin-left="0"
     fit-margin-right="0"
     fit-margin-bottom="0"
     inkscape:window-width="1673"
     inkscape:window-height="908"
     inkscape:window-x="247"
     inkscape:window-y="115"
     inkscape:window-maximized="0" />
  <metadata
     id="metadata1222">
    <rdf:RDF>
      <cc:Work
         rdf:about="">
        <dc:format>image/svg+xml</dc:format>
        <dc:type
           rdf:resource="http://purl.org/dc/dcmitype/StillImage" />
        <dc:title />
      </cc:Work>
    </rdf:RDF>
  </metadata>
  <g
     inkscape:label="Layer 1"
     inkscape:groupmode="layer"
     id="layer1"
     transform="translate(-101.98806,-111.81545)">
    <g
       id="g1825">
      <path
         id="path1272-96"
         style="fill:#ffffff;fill-opacity:1;stroke:none;stroke-width:0.0775643;stop-color:#000000"
         d="m 113.32683,114.90443 c -0.15453,0 -0.18219,0.25369 -0.23429,2.1533 -0.02,0.72879 -0.0799,2.54751 -0.13315,4.04154 -0.0532,1.49404 -0.0975,2.94929 -0.0983,3.23398 l -0.002,0.51767 0.74536,-0.39209 c 0.40995,-0.21565 0.97233,-0.51612 1.24975,-0.66762 0.84732,-0.46271 1.79347,-0.72729 3.00716,-0.84096 0.53422,-0.05 1.38636,-0.266 1.59894,-0.40529 0.3958,-0.25934 0.45183,-0.95691 0.13907,-1.73122 -0.77188,-1.91097 -2.71827,-4.13086 -4.59077,-5.23577 -0.4771,-0.28153 -1.45618,-0.67354 -1.6823,-0.67354 z m -0.82834,0.0663 c -0.13257,0 -1.1196,0.82793 -1.70414,1.42949 -1.58953,1.63577 -2.94471,3.76641 -3.52989,5.54974 -0.32458,0.98914 -0.32495,0.9924 -0.13306,1.17268 0.1439,0.13519 0.33393,0.1795 1.43977,0.3358 0.70066,0.099 1.29078,0.16031 1.31137,0.13616 0.0206,-0.0241 0.12127,-0.49118 0.2238,-1.03778 0.10253,-0.54659 0.2114,-1.02105 0.24186,-1.05437 0.0701,-0.0768 0.51562,0.40239 0.56794,0.61084 0.0213,0.0847 -0.0136,0.4785 -0.0774,0.87513 -0.0638,0.39662 -0.0995,0.76411 -0.0793,0.81669 0.0337,0.0879 1.7751,1.05348 1.81963,1.00895 0.0108,-0.0108 0.0469,-0.73181 0.0804,-1.60223 0.0334,-0.87042 0.0966,-3.00711 0.14024,-4.74819 l 0.0794,-3.16555 -0.15373,-0.16373 c -0.0846,-0.09 -0.18664,-0.16363 -0.22681,-0.16363 z m 1.91202,3.03192 c 0.0388,-9.4e-4 0.35141,0.74585 0.54281,1.31612 0.23392,0.69692 0.27996,1.1232 0.14811,1.37077 -0.0748,0.14046 -0.24762,0.30396 -0.3258,0.30824 -0.0212,10e-4 -0.10564,-0.63146 -0.18771,-1.40581 -0.0821,-0.77434 -0.16132,-1.46753 -0.17615,-1.54041 -0.007,-0.0334 -0.007,-0.0488 -0.001,-0.0489 z m -3.09839,0.89763 c 0.0217,0.0217 -0.1691,1.58568 -0.19682,1.6134 -0.007,0.007 -0.0797,-0.0889 -0.1613,-0.21332 -0.0816,-0.12442 -0.1482,-0.25755 -0.1482,-0.29591 0,-0.0933 0.47698,-1.13351 0.50632,-1.10417 z m 6.75824,5.0178 c -0.60005,-0.003 -1.32027,0.0885 -1.89796,0.25447 -1.35918,0.39058 -2.7139,0.96352 -3.27328,1.38426 l -0.25874,0.19459 -0.4149,-0.29 c -0.48971,-0.34233 -1.67443,-0.91855 -2.51288,-1.22218 -0.53722,-0.19454 -0.67118,-0.21642 -1.35262,-0.2204 -0.56909,-0.003 -0.76355,0.0171 -0.78544,0.0827 -0.016,0.0479 -0.10052,0.11424 -0.18779,0.14742 -0.22449,0.0854 -0.20566,0.22214 0.0235,0.17062 0.99428,-0.22359 1.65526,-0.19038 2.68582,0.13471 0.84345,0.26606 2.49861,1.1564 2.49861,1.34407 0,0.0355 0.0721,-0.008 0.16024,-0.0957 0.0881,-0.0881 0.5279,-0.33709 0.97722,-0.5532 1.29087,-0.62086 2.33849,-0.90082 3.66508,-0.97935 0.4768,-0.0282 0.83117,-0.009 1.25974,0.0695 0.74956,0.13661 1.0313,0.17825 0.86124,0.12733 -0.13173,-0.0394 -0.13167,-0.0399 -10e-4,-0.0867 0.10073,-0.0361 0.0469,-0.0673 -0.23078,-0.13393 -0.27757,-0.0666 -0.33139,-0.0978 -0.2307,-0.13384 0.0975,-0.0349 0.029,-0.0685 -0.26621,-0.13073 -0.19845,-0.0418 -0.44632,-0.0624 -0.71906,-0.0637 z m 0.0149,0.0708 c 0.06,1.6e-4 0.11764,0.004 0.15838,0.0121 0.0815,0.0157 -9.3e-4,0.0282 -0.18304,0.0277 -0.18219,-5.6e-4 -0.2489,-0.0134 -0.14819,-0.0286 0.0504,-0.008 0.1128,-0.0113 0.17285,-0.0112 z m 0.67101,0.0673 c 0.03,0 0.06,0.005 0.0828,0.0138 0.0456,0.0184 0.008,0.0334 -0.0828,0.0334 -0.0911,0 -0.12843,-0.015 -0.0829,-0.0334 0.0228,-0.009 0.0529,-0.0138 0.0829,-0.0138 z m -0.59628,0.0662 c 0.03,0 0.06,0.005 0.0828,0.0138 0.0455,0.0184 0.008,0.0335 -0.0828,0.0335 -0.0911,0 -0.12843,-0.0151 -0.0829,-0.0335 0.0228,-0.009 0.0529,-0.0138 0.0829,-0.0138 z m 0.52447,0.0659 c 0.023,9.4e-4 0.0428,0.007 0.0539,0.0181 0.022,0.022 -0.0171,0.0376 -0.087,0.0347 -0.0772,-0.003 -0.0929,-0.0188 -0.0401,-0.04 0.0239,-0.01 0.0502,-0.0138 0.0732,-0.0128 z m 0.33124,0.0663 c 0.023,9.4e-4 0.0428,0.007 0.0539,0.0179 0.022,0.022 -0.0171,0.0377 -0.087,0.0348 -0.0772,-0.003 -0.0928,-0.0188 -0.04,-0.04 0.0239,-0.01 0.0501,-0.0138 0.0731,-0.0128 z m 0.26504,0.0662 c 0.023,9.4e-4 0.0429,0.007 0.0539,0.018 0.022,0.022 -0.0171,0.0377 -0.087,0.0348 -0.0772,-0.003 -0.0929,-0.0189 -0.0401,-0.0401 0.0239,-0.01 0.0502,-0.0138 0.0732,-0.0128 z m -9.60302,0.65442 c -0.0985,0 -0.15489,0.10243 -0.26418,0.48031 -0.0764,0.26419 -0.1517,0.51869 -0.16731,0.56562 -0.0381,0.11443 0.15765,0.18368 0.25213,0.0892 0.11434,-0.11434 0.23363,-0.0899 0.28039,0.0575 0.0231,0.0729 0.10028,0.13248 0.17139,0.13248 0.0993,0 0.12196,-0.0346 0.0975,-0.14908 -0.0175,-0.082 -0.0648,-0.32796 -0.1052,-0.54659 -0.10769,-0.58303 -0.12724,-0.62939 -0.26476,-0.62939 z m -1.57564,0.009 c -0.2546,-0.0115 -0.32823,0.14396 -0.36366,0.70664 -0.0307,0.48781 -0.0221,0.54796 0.0753,0.52952 0.0686,-0.013 0.11752,-0.0982 0.13005,-0.22652 0.0139,-0.14192 0.0698,-0.22846 0.18032,-0.27883 0.29496,-0.13439 0.31905,-0.69271 0.0314,-0.72634 -0.0186,-0.002 -0.0364,-0.004 -0.0534,-0.004 z m 10.36091,0.0679 c -0.0187,-6e-5 -0.0377,5.6e-4 -0.057,0.002 -0.23318,0.017 -0.28662,0.0485 -0.33978,0.20051 -0.0809,0.23144 0.0309,0.45025 0.31426,0.61502 0.307,0.17849 0.41092,0.36404 0.20391,0.36404 -0.0581,0 -0.12119,-0.0596 -0.14024,-0.13248 -0.0248,-0.0947 -0.0903,-0.13247 -0.23012,-0.13247 -0.17129,0 -0.19019,0.0185 -0.15256,0.14907 0.0795,0.27593 0.34973,0.45616 0.65064,0.43402 0.24095,-0.0177 0.27849,-0.0435 0.33094,-0.22749 0.0808,-0.28358 -0.0575,-0.55263 -0.37025,-0.72003 -0.13613,-0.0729 -0.24758,-0.17192 -0.24768,-0.22012 -1.3e-4,-0.06 0.0548,-0.0444 0.1744,0.0497 0.22048,0.17343 0.35551,0.1752 0.35551,0.005 0,-0.22371 -0.21144,-0.38572 -0.49205,-0.38655 z m -2.43087,0.0553 c -0.20338,0 -0.20253,-0.002 -0.41937,0.9482 -0.12529,0.54906 -0.12572,0.50943 0.005,0.50943 0.0596,0 0.17742,-0.0746 0.26185,-0.16567 0.17513,-0.18897 0.2796,-0.20969 0.33464,-0.0663 0.0445,0.11589 0.3553,0.13593 0.3553,0.0229 0,-0.0421 -0.0792,-0.34015 -0.17596,-0.66248 -0.16694,-0.55627 -0.1853,-0.5861 -0.3618,-0.5861 z m -7.96789,0.15829 c 0.008,-1.9e-4 0.0168,0.002 0.0261,0.008 0.037,0.0229 0.0502,0.0694 0.0292,0.10336 -0.0568,0.0919 -0.0965,0.0747 -0.0965,-0.0416 0,-0.0426 0.017,-0.0689 0.0412,-0.0697 z m 3.2131,0.32455 c -0.0637,-3.8e-4 -0.074,0.12269 -0.074,0.62055 v 0.65384 l 0.28155,0.17634 c 0.3582,0.2243 0.38105,0.22455 0.38054,0.004 -3.7e-4,-0.13282 -0.0542,-0.21277 -0.19876,-0.29504 -0.1928,-0.10971 -0.19837,-0.12688 -0.19837,-0.61288 0,-0.275 -0.0124,-0.50002 -0.0277,-0.50002 -0.0152,0 -0.0749,-0.0181 -0.13257,-0.0402 -0.0114,-0.004 -0.0216,-0.007 -0.0307,-0.007 z m -1.63494,0.003 c 0.0106,-10e-4 0.0233,0.002 0.037,0.0109 0.0364,0.0225 0.0663,0.0541 0.0663,0.0702 0,0.0161 -0.0298,0.0292 -0.0663,0.0292 -0.0364,0 -0.0662,-0.0316 -0.0662,-0.0702 0,-0.0241 0.0116,-0.0383 0.0292,-0.0401 z m 4.43636,0.054 c -0.0297,-0.005 -0.106,0.0268 -0.18353,0.0776 -0.12169,0.0797 -0.17369,0.19129 -0.21235,0.45615 l -0.0512,0.35065 -0.0614,-0.29815 c -0.0338,-0.16398 -0.0724,-0.30962 -0.0858,-0.32367 -0.0134,-0.014 -0.0999,0.0239 -0.19216,0.0843 -0.16177,0.106 -0.1677,0.13449 -0.1677,0.80408 0,0.68251 0.0272,0.77287 0.18546,0.61463 0.0437,-0.0437 0.0825,-0.20025 0.0863,-0.34783 l 0.007,-0.26836 0.0518,0.21866 c 0.0631,0.26651 0.0803,0.28579 0.19264,0.21633 0.0487,-0.0301 0.1267,-0.22973 0.17344,-0.44362 l 0.085,-0.38889 0.007,0.35017 c 0.007,0.33668 0.0122,0.34724 0.14879,0.27417 0.13476,-0.0721 0.13993,-0.10825 0.10054,-0.7079 -0.0228,-0.34756 -0.056,-0.64643 -0.0738,-0.66413 -0.002,-0.002 -0.005,-0.004 -0.01,-0.004 z m 1.91775,0.005 c 0.01,0.004 0.0238,0.0212 0.0433,0.0513 0.083,0.12845 0.083,0.19876 0,0.19876 -0.0364,0 -0.0658,-0.0671 -0.0652,-0.14907 3.7e-4,-0.0753 0.006,-0.10727 0.0219,-0.10103 z m -8.60941,1.17433 c -0.25833,-0.001 -0.42533,0.0141 -0.4017,0.0523 0.0231,0.0373 0.18735,0.1788 0.36511,0.31435 0.32132,0.24505 0.3274,0.24657 1.04448,0.26767 0.79874,0.0235 1.4966,0.18118 2.1863,0.4939 0.48334,0.21917 1.30074,0.76717 1.58185,1.06059 0.1588,0.16575 0.24251,0.19932 0.49351,0.19779 0.24731,-0.002 0.33803,-0.0381 0.49826,-0.20138 0.49937,-0.50875 1.54739,-1.05793 2.47513,-1.29701 0.57135,-0.14724 0.73974,-0.16211 1.53614,-0.13597 0.53863,0.0177 1.03933,0.0716 1.25877,0.13549 0.20042,0.0584 0.42617,0.12381 0.50167,0.14548 0.098,0.0281 0.23598,-0.0386 0.48234,-0.23331 0.18979,-0.15003 0.32994,-0.29724 0.31144,-0.32717 -0.0695,-0.11244 -1.3675,-0.23734 -2.42174,-0.23302 -0.89372,0.004 -1.202,0.0312 -1.68949,0.15111 -0.90666,0.22293 -1.60049,0.59661 -2.25132,1.21267 -0.36751,0.34788 -0.60112,0.51995 -0.70596,0.51991 -0.10599,-5e-5 -0.29604,-0.14306 -0.58735,-0.44198 -0.70151,-0.71982 -1.5387,-1.18087 -2.70476,-1.48936 -0.39407,-0.10426 -1.40435,-0.18899 -1.97268,-0.19207 z m 2.75609,3.29687 v 0.70527 0.70528 h 0.19877 c 0.17667,0 0.19876,-0.0221 0.19876,-0.19876 0,-0.10932 0.0281,-0.19876 0.0625,-0.19876 0.0344,0 0.11536,0.0894 0.17993,0.19876 0.0925,0.15667 0.1635,0.19876 0.33503,0.19876 0.25005,0 0.26266,-0.0369 0.0896,-0.26213 -0.12266,-0.15962 -0.12268,-0.1659 0.001,-0.32367 0.15767,-0.20045 0.16154,-0.41671 0.0107,-0.60221 -0.0921,-0.11326 -0.21469,-0.15076 -0.59629,-0.18256 z m 4.81796,0.012 c -0.0676,-10e-4 -0.1654,0.032 -0.30687,0.0813 -0.14428,0.0503 -0.2007,0.10527 -0.17547,0.171 0.0204,0.0533 0.0372,0.12155 0.0372,0.1516 0,0.0301 0.0596,0.0389 0.13247,0.0199 0.12395,-0.0324 0.13257,-0.002 0.13257,0.47003 0,0.49411 0.003,0.50467 0.16558,0.50467 h 0.16567 v -0.69567 c 0,-0.53089 -0.002,-0.70019 -0.15112,-0.70285 z m 0.86125,0 c -0.0676,-10e-4 -0.16531,0.032 -0.30679,0.0813 -0.14427,0.0503 -0.20078,0.10527 -0.17557,0.171 0.0205,0.0533 0.0373,0.12155 0.0373,0.1516 0,0.0301 0.0596,0.0389 0.13248,0.0199 0.12395,-0.0324 0.13248,-0.002 0.13248,0.47003 0,0.49411 0.003,0.50467 0.16567,0.50467 h 0.16566 v -0.69567 c 0,-0.53089 -0.003,-0.70019 -0.1512,-0.70285 z m -3.02901,0.007 v 0.69567 0.69567 h 0.53001 c 0.5212,0 0.53,-0.003 0.53,-0.16567 0,-0.15459 -0.022,-0.16567 -0.33124,-0.16567 -0.25029,0 -0.33124,-0.0243 -0.33124,-0.0994 0,-0.0736 0.0773,-0.0994 0.29814,-0.0994 0.27386,0 0.29815,-0.0134 0.29815,-0.16557 0,-0.15214 -0.0243,-0.16567 -0.29815,-0.16567 -0.16397,0 -0.29814,-0.0298 -0.29814,-0.0663 0,-0.0364 0.14904,-0.0662 0.33124,-0.0662 0.32391,0 0.33124,-0.004 0.33124,-0.19876 v -0.19876 h -0.53 z m -0.76758,0.004 c -0.14037,0.002 -0.27318,0.0471 -0.38287,0.13334 -0.32636,0.25672 -0.19478,0.58687 0.29213,0.73275 0.14413,0.0432 0.26204,0.10365 0.26204,0.13432 0,0.0762 -0.3124,0.0705 -0.45974,-0.008 -0.0897,-0.048 -0.148,-0.0331 -0.23176,0.0595 -0.10573,0.11684 -0.10358,0.12961 0.0395,0.22982 0.20428,0.14309 0.76856,0.14086 0.92831,-0.004 0.15523,-0.14049 0.15571,-0.43484 9.3e-4,-0.57494 -0.0662,-0.0599 -0.21589,-0.12804 -0.33269,-0.1514 -0.11679,-0.0234 -0.22849,-0.0687 -0.24826,-0.10065 -0.0584,-0.0945 0.13487,-0.13397 0.31697,-0.0647 0.30583,0.11627 0.44606,-0.17786 0.14927,-0.31309 -0.11097,-0.0506 -0.22469,-0.0747 -0.33386,-0.073 z m 4.67559,0.002 c -0.12245,3.8e-4 -0.24511,0.0451 -0.35793,0.13384 -0.16749,0.13175 -0.17157,0.14723 -0.0679,0.26175 0.10078,0.11135 0.12345,0.11305 0.26564,0.0199 0.0855,-0.056 0.18653,-0.0825 0.22457,-0.059 0.14205,0.0878 0.0596,0.23819 -0.26213,0.47837 -0.22884,0.17084 -0.33125,0.29424 -0.33125,0.39889 0,0.1452 0.022,0.1515 0.53001,0.1515 0.5212,0 0.53,-0.003 0.53,-0.16567 0,-0.14544 -0.0285,-0.16567 -0.23418,-0.16567 h -0.23419 l 0.23419,-0.20555 c 0.29313,-0.25738 0.31464,-0.5166 0.0596,-0.71722 -0.11174,-0.0879 -0.23392,-0.13158 -0.35638,-0.13112 z m -7.44944,0.027 c -0.17078,0 -0.20703,0.0475 -0.42985,0.5632 -0.37175,0.86043 -0.36284,0.79505 -0.10908,0.79505 0.16636,0 0.23084,-0.0333 0.2568,-0.13258 0.0267,-0.10228 0.0904,-0.13247 0.27893,-0.13247 0.18857,0 0.25218,0.0302 0.27892,0.13247 0.026,0.0996 0.0904,0.13258 0.25884,0.13258 0.12329,0 0.22419,-0.0103 0.22419,-0.0229 0,-0.0126 -0.12883,-0.31814 -0.2862,-0.67907 -0.26494,-0.60764 -0.29986,-0.65627 -0.47255,-0.65627 z m 1.49237,0.36443 c 0.15813,0 0.19866,0.0258 0.18159,0.11588 -0.0133,0.0699 -0.0941,0.1243 -0.20362,0.13694 -0.14617,0.0169 -0.18158,-0.006 -0.18158,-0.11597 0,-0.10868 0.042,-0.13685 0.20361,-0.13685 z m -1.50751,0.1613 c 0.0148,-0.003 0.0309,0.0132 0.0533,0.0484 0.0871,0.13733 0.068,0.25399 -0.0413,0.25399 -0.0547,0 -0.0994,-0.0274 -0.0994,-0.0609 0,-0.0335 0.019,-0.11041 0.0423,-0.17111 0.0169,-0.044 0.0303,-0.0671 0.0451,-0.0705 z" />
      <circle
         style="fill:none;fill-opacity:1;stroke:#fffffa;stroke-width:0.415618;stroke-miterlimit:4;stroke-dasharray:none;stroke-opacity:1;stop-color:#000000"
         id="path1272-9-4"
         cx="113.39285"
         cy="123.22024"
         r="11.196981" />
    </g>
  </g>
</svg>
